<?xml version="1.0" encoding="UTF-8" standalone="no"?>
<!-- Created with Inkscape (http://www.inkscape.org/) -->

<svg
   width="297mm"
   height="210mm"
   viewBox="0 0 297 210"
   version="1.1"
   id="svg1"
   inkscape:export-filename="Playa ink.png"
   inkscape:export-xdpi="96"
   inkscape:export-ydpi="96"
   inkscape:version="1.3.2 (091e20e, 2023-11-25, custom)"
   sodipodi:docname="dibujo.svg"
   xmlns:inkscape="http://www.inkscape.org/namespaces/inkscape"
   xmlns:sodipodi="http://sodipodi.sourceforge.net/DTD/sodipodi-0.dtd"
   xmlns="http://www.w3.org/2000/svg"
   xmlns:svg="http://www.w3.org/2000/svg">
  <sodipodi:namedview
     id="namedview1"
     pagecolor="#ffffff"
     bordercolor="#000000"
     borderopacity="0.25"
     inkscape:showpageshadow="2"
     inkscape:pageopacity="0.0"
     inkscape:pagecheckerboard="0"
     inkscape:deskcolor="#d1d1d1"
     inkscape:document-units="mm"
     inkscape:zoom="0.72426347"
     inkscape:cx="474.27492"
     inkscape:cy="338.96505"
     inkscape:window-width="1920"
     inkscape:window-height="1009"
     inkscape:window-x="-8"
     inkscape:window-y="-8"
     inkscape:window-maximized="1"
     inkscape:current-layer="layer1" />
  <defs
     id="defs1">
    <filter
       inkscape:collect="always"
       style="color-interpolation-filters:sRGB"
       id="filter5"
       x="-0.30467704"
       y="-0.49297778"
       width="1.6093541"
       height="1.9859556">
      <feGaussianBlur
         inkscape:collect="always"
         stdDeviation="18.009151"
         id="feGaussianBlur5" />
    </filter>
  </defs>
  <g
     inkscape:label="Capa 1"
     inkscape:groupmode="layer"
     id="layer1">
    <path
       style="fill:#8adef5;fill-opacity:1;stroke:none;stroke-width:4;stroke-opacity:1"
       d="M -67.583025,161.83395 219.18819,-43.837637 350.7011,-14.247232 350.33579,156.71956 308.32472,232.33948 32.512915,223.20664 -69.409592,190.32841 Z"
       id="path6" />
    <path
       style="fill:#e9f584;fill-opacity:1;stroke:none;stroke-width:4;stroke-opacity:1"
       d="m -0.73062729,159.64206 c 0,0 74.15867129,6.57565 81.83025729,-4.74907 7.671586,-11.32473 27.76384,-37.62731 36.16605,-39.81919 8.40222,-2.19188 55.89299,-7.67159 61.3727,-19.361622 5.4797,-11.690038 0.36531,-46.760148 6.94095,-54.066421 6.57565,-7.306273 30.68635,-11.324722 39.45388,-16.804427 8.76752,-5.479705 22.28413,-28.4944644 25.57195,-42.741694 3.28783,-14.24724 -212.977854,-29.59041 -212.977854,-29.59041 l -84.387454,7.30627 c 0,0 -35.435423,42.0110696 -31.051658,54.431738 4.383762,12.420664 77.08117871,145.394826 77.08117871,145.394826 z"
       id="path5" />
    <ellipse
       style="fill:#000000;fill-opacity:0.68481374;stroke:none;stroke-width:4;filter:url(#filter5)"
       id="path1-1"
       transform="scale(1,-1)"
       ry="43.837639"
       rx="70.930786"
       cy="-42.11845"
       cx="53.005028" />
    <ellipse
       style="fill:#ff2f2f;stroke:none;stroke-width:4;fill-opacity:1"
       id="path1"
       transform="scale(1,-1)"
       ry="43.837639"
       rx="70.930786"
       cy="-18.996307"
       cx="9.1927853" />
    <path
       style="fill:#00ace7;fill-opacity:1;stroke:#ededed;stroke-width:2;stroke-opacity:1;stroke-dasharray:none"
       d="m -33.608856,178.27306 c 0,0 7.133751,39.33936 53.656154,18.59913 16.941935,-7.55291 37.605854,-22.19879 66.166724,-24.44415 31.552818,-2.48056 45.732108,22.21583 61.372608,22.21465 41.94397,-0.003 39.22407,-40.04274 59.18089,-22.21465 27.39853,24.47602 69.77492,23.38008 65.02584,7.30628 -4.74909,-16.07381 -28.85978,-37.262 -6.21034,-48.22141 22.64944,-10.95941 16.80443,-20.45756 4.38377,-34.704794 -12.42068,-14.24723 -24.11071,-21.553505 -6.57565,-33.608855 17.53505,-12.055351 35.0701,-27.763838 26.66789,-40.184501 -8.40222,-12.420664 -24.84131,-1.826568 0.73064,-36.896679 25.57196,-35.070109 47.49078,-11.690036 56.98892,58.815497 9.49815,70.505532 -15.34318,177.542432 -15.34318,177.542432 0,0 -353.623602,32.87823 -362.39113,1.09594 -8.767527,-31.78228 -3.653136,-45.29889 -3.653136,-45.29889 z"
       id="path7"
       sodipodi:nodetypes="cssssssssssscsc" />
    <path
       style="fill:#006f97;fill-opacity:1;stroke:none;stroke-width:0.3;stroke-linecap:round;stroke-dasharray:none;stroke-opacity:1"
       d="m -56.258303,223.93727 c 0,0 84.752768,-12.42066 101.557196,-22.28413 16.804426,-9.86347 25.937271,-13.15131 71.601477,-4.74909 10.16927,1.87115 32.43139,7.01411 45.88408,5.15686 18.36375,-2.53525 28.19731,-12.75268 41.05986,-12.76622 10.51584,-0.0111 19.30944,-0.71363 33.9639,3.26604 13.2537,3.59926 32.76439,12.02591 36.17701,10.18834 14.24722,-7.6716 11.69005,-20.82287 3.65315,-35.80073 -8.0369,-14.97786 -16.0738,-31.05165 5.84502,-34.33948 11.2112,-1.68168 -2.57612,-22.83316 5.13793,-29.93015 7.36756,-6.778205 4.44635,-18.782464 0.34177,-24.136276 -8.40221,-10.959415 -5.47969,-25.937268 5.47972,-36.531365 10.95942,-10.594096 48.22139,3.287822 42.01106,-13.516603 -6.21032,-16.804429 13.88192,127.859774 13.88192,130.416974 0,2.55719 -46.39484,68.67896 -46.39484,68.67896 L 2.1918819,234.89668 Z"
       id="path19"
       sodipodi:nodetypes="csssccssssssssccc" />
  </g>
</svg>
